<?xml version="1.0" encoding="UTF-8"?>
<!DOCTYPE svg PUBLIC "-//W3C//DTD SVG 1.1//EN" "http://www.w3.org/Graphics/SVG/1.1/DTD/svg11.dtd">
<svg xmlns="http://www.w3.org/2000/svg" version="1.1" width="400px" height="400px" style="shape-rendering:geometricPrecision; text-rendering:geometricPrecision; image-rendering:optimizeQuality; fill-rule:evenodd; clip-rule:evenodd" xmlns:xlink="http://www.w3.org/1999/xlink">
<g><path style="opacity:0.979" fill="#05a5fe" d="M 149.5,84.5 C 144.12,90.3893 137.12,96.056 128.5,101.5C 127.549,100.674 126.549,100.508 125.5,101C 124.538,103.594 122.871,105.594 120.5,107C 117.425,109.868 113.759,111.701 109.5,112.5C 105.833,116.167 102.167,119.833 98.5,123.5C 97.5745,124.641 96.7412,124.641 96,123.5C 95.51,124.793 95.3433,126.127 95.5,127.5C 91.585,128.808 88.2516,131.141 85.5,134.5C 83.604,135.466 81.604,135.799 79.5,135.5C 79.627,138.245 78.4603,140.245 76,141.5C 75.6667,140.5 75.3333,139.5 75,138.5C 73.2516,143.003 70.7516,147.003 67.5,150.5C 64.5893,151.792 62.7559,150.792 62,147.5C 62.425,152.771 60.2583,156.104 55.5,157.5C 55.5,156.5 55.5,155.5 55.5,154.5C 56.7982,145.611 59.4649,137.277 63.5,129.5C 65.1042,128.713 65.7709,127.38 65.5,125.5C 68.3126,124.554 69.646,122.554 69.5,119.5C 71.117,116.216 73.4503,113.549 76.5,111.5C 77.5,111.5 78.5,111.5 79.5,111.5C 79.5,110.167 79.5,108.833 79.5,107.5C 86.1109,100.247 94.1109,94.9135 103.5,91.5C 105.483,91.8432 106.817,91.1765 107.5,89.5C 121.193,84.2042 135.193,82.5376 149.5,84.5 Z"/></g>
<g><path style="opacity:0.994" fill="#02abfe" d="M 149.5,84.5 C 155.102,84.2357 160.435,85.2357 165.5,87.5C 166.78,88.9313 168.447,89.5979 170.5,89.5C 170.833,89.5 171.167,89.5 171.5,89.5C 171.821,91.0481 172.821,91.7148 174.5,91.5C 174.833,91.5 175.167,91.5 175.5,91.5C 175.5,92.1667 175.5,92.8333 175.5,93.5C 171.382,93.5645 167.382,94.2312 163.5,95.5C 159.915,94.1128 156.248,93.6128 152.5,94C 149.761,99.382 145.428,102.882 139.5,104.5C 137.484,106.684 135.317,108.684 133,110.5C 132.667,110.167 132.333,109.833 132,109.5C 128.755,111.237 125.922,113.57 123.5,116.5C 122.311,117.429 120.978,117.762 119.5,117.5C 118.438,121.588 116.104,124.921 112.5,127.5C 111.914,127.291 111.414,126.957 111,126.5C 106.927,129.469 103.093,132.803 99.5,136.5C 94.7271,138.886 90.0604,141.22 85.5,143.5C 85.6715,145.492 85.0049,147.158 83.5,148.5C 79.8351,149.997 76.5017,151.997 73.5,154.5C 72.233,156.371 72.233,158.204 73.5,160C 72.324,161.914 71.324,161.748 70.5,159.5C 69.2312,162.932 67.0645,165.598 64,167.5C 63.6924,166.692 63.1924,166.025 62.5,165.5C 61.6922,167.423 61.1922,169.423 61,171.5C 60.6667,170.167 60.3333,168.833 60,167.5C 59,183.5 58,183.5 57,167.5C 55.9028,174.908 55.0695,182.241 54.5,189.5C 52.9091,177.632 53.2424,165.965 55.5,154.5C 55.5,155.5 55.5,156.5 55.5,157.5C 60.2583,156.104 62.425,152.771 62,147.5C 62.7559,150.792 64.5893,151.792 67.5,150.5C 70.7516,147.003 73.2516,143.003 75,138.5C 75.3333,139.5 75.6667,140.5 76,141.5C 78.4603,140.245 79.627,138.245 79.5,135.5C 81.604,135.799 83.604,135.466 85.5,134.5C 88.2516,131.141 91.585,128.808 95.5,127.5C 95.3433,126.127 95.51,124.793 96,123.5C 96.7412,124.641 97.5745,124.641 98.5,123.5C 102.167,119.833 105.833,116.167 109.5,112.5C 113.759,111.701 117.425,109.868 120.5,107C 122.871,105.594 124.538,103.594 125.5,101C 126.549,100.508 127.549,100.674 128.5,101.5C 137.12,96.056 144.12,90.3893 149.5,84.5 Z"/></g>
<g><path style="opacity:0.835" fill="#04b8fe" d="M 265.5,85.5 C 268.403,87.1038 271.737,88.1038 275.5,88.5C 274.311,89.4287 272.978,89.762 271.5,89.5C 267.382,89.4355 263.382,88.7688 259.5,87.5C 257.616,87.7163 255.949,88.383 254.5,89.5C 253.833,88.8333 253.167,88.1667 252.5,87.5C 249.362,88.7444 246.028,89.411 242.5,89.5C 239.314,89.498 236.314,89.1647 233.5,88.5C 234.568,87.5655 235.901,87.2322 237.5,87.5C 246.782,86.2469 256.115,85.5802 265.5,85.5 Z"/></g>
<g><path style="opacity:0.282" fill="#2cbee8" d="M 270.5,85.5 C 268.833,85.5 267.167,85.5 265.5,85.5C 256.115,85.5802 246.782,86.2469 237.5,87.5C 240.322,86.4928 243.322,85.6595 246.5,85C 254.677,84.1772 262.677,84.3439 270.5,85.5 Z"/></g>
<g><path style="opacity:0.995" fill="#03bdfe" d="M 271.5,89.5 C 271.665,93.0034 269.998,95.0034 266.5,95.5C 262.346,94.4656 258.346,93.1322 254.5,91.5C 250.165,94.1448 250.498,95.4782 255.5,95.5C 255.5,96.8333 255.5,98.1667 255.5,99.5C 252.833,99.5 250.167,99.5 247.5,99.5C 247.79,103.554 247.123,104.054 245.5,101C 244.552,100.517 243.552,100.351 242.5,100.5C 242.5,101.5 242.5,102.5 242.5,103.5C 240.8,103.374 239.3,102.707 238,101.5C 236.941,101.63 236.108,102.13 235.5,103C 236.833,104 236.833,105 235.5,106C 231.898,107.076 228.231,107.91 224.5,108.5C 223.833,107.5 223.167,106.5 222.5,105.5C 220.429,108.699 217.429,110.366 213.5,110.5C 214.833,111.167 216.167,111.833 217.5,112.5C 216.833,113.167 216.167,113.833 215.5,114.5C 211.284,115.22 207.284,116.553 203.5,118.5C 199.736,121.256 195.902,123.923 192,126.5C 190.951,125.483 189.784,125.316 188.5,126C 186.568,127.352 185.234,129.185 184.5,131.5C 183.707,131.069 182.873,130.735 182,130.5C 180.177,131.651 178.344,132.818 176.5,134C 175.663,135.011 175.33,136.178 175.5,137.5C 172.833,137.5 170.167,137.5 167.5,137.5C 165.95,140.889 163.45,143.556 160,145.5C 159.51,144.207 159.343,142.873 159.5,141.5C 157.282,141.614 155.282,142.28 153.5,143.5C 147.486,142.297 141.486,142.297 135.5,143.5C 138.103,140.782 141.437,139.282 145.5,139C 144.5,138.5 143.5,138 142.5,137.5C 140.253,138.374 137.92,138.708 135.5,138.5C 135.5,137.5 135.5,136.5 135.5,135.5C 140.214,135.827 144.88,135.493 149.5,134.5C 151.542,133.497 151.875,132.163 150.5,130.5C 141.389,128.647 141.723,127.647 151.5,127.5C 151.281,128.675 151.614,129.675 152.5,130.5C 154.854,129.94 157.187,129.273 159.5,128.5C 159.291,127.914 158.957,127.414 158.5,127C 165.603,120.448 173.937,116.614 183.5,115.5C 183.5,114.167 183.5,112.833 183.5,111.5C 182.022,111.762 180.689,111.429 179.5,110.5C 180.5,110.167 181.5,109.833 182.5,109.5C 184.777,110.478 187.11,111.145 189.5,111.5C 189.5,110.167 189.5,108.833 189.5,107.5C 190.833,107.5 192.167,107.5 193.5,107.5C 193.5,106.5 193.5,105.5 193.5,104.5C 194.872,105.512 196.205,106.512 197.5,107.5C 197.62,108.586 198.287,109.253 199.5,109.5C 201.545,108.789 202.878,107.456 203.5,105.5C 204.5,104.833 205.5,104.167 206.5,103.5C 209.069,103.262 210.735,101.929 211.5,99.5C 213.118,97.684 215.118,96.3507 217.5,95.5C 219.5,95.5 221.5,95.5 223.5,95.5C 223.433,94.0413 223.766,92.7079 224.5,91.5C 227.402,90.2163 230.402,89.2163 233.5,88.5C 236.314,89.1647 239.314,89.498 242.5,89.5C 246.028,89.411 249.362,88.7444 252.5,87.5C 253.167,88.1667 253.833,88.8333 254.5,89.5C 255.949,88.383 257.616,87.7163 259.5,87.5C 263.382,88.7688 267.382,89.4355 271.5,89.5 Z"/></g>
<g><path style="opacity:0.016" fill="#4ac9ef" d="M 165.5,87.5 C 167.553,87.4021 169.22,88.0687 170.5,89.5C 168.447,89.5979 166.78,88.9313 165.5,87.5 Z"/></g>
<g><path style="opacity:0.073" fill="#39a7cc" d="M 107.5,89.5 C 106.817,91.1765 105.483,91.8432 103.5,91.5C 104.671,90.6554 106.005,89.9887 107.5,89.5 Z"/></g>
<g><path style="opacity:0.082" fill="#38b5dc" d="M 171.5,89.5 C 172.71,89.9321 173.71,90.5987 174.5,91.5C 172.821,91.7148 171.821,91.0481 171.5,89.5 Z"/></g>
<g><path style="opacity:0.999" fill="#02c5fe" d="M 265.5,85.5 C 267.167,85.5 268.833,85.5 270.5,85.5C 277.249,86.0428 283.582,87.7094 289.5,90.5C 291.182,92.3468 293.182,93.8468 295.5,95C 294.216,95.6838 293.049,95.5171 292,94.5C 291.696,96.4405 290.863,98.1072 289.5,99.5C 291.547,101.015 293.881,101.849 296.5,102C 296.167,102.333 295.833,102.667 295.5,103C 303.486,106.433 302.82,107.933 293.5,107.5C 293.5,106.167 293.5,104.833 293.5,103.5C 291.5,103.5 289.5,103.5 287.5,103.5C 287.657,104.873 287.49,106.207 287,107.5C 286.196,106.196 285.029,105.529 283.5,105.5C 279.754,107.253 275.754,107.92 271.5,107.5C 271.5,108.833 271.5,110.167 271.5,111.5C 269.857,111.52 268.524,110.853 267.5,109.5C 263.697,111.014 259.697,112.014 255.5,112.5C 250.423,117.384 244.757,118.384 238.5,115.5C 237.646,116.522 236.646,117.355 235.5,118C 236.833,118.333 238.167,118.667 239.5,119C 235.806,119 232.973,120.5 231,123.5C 229.647,122.315 228.48,120.981 227.5,119.5C 224.836,124.166 220.836,126.833 215.5,127.5C 215.665,131.003 213.998,133.003 210.5,133.5C 208.956,133.21 207.623,132.544 206.5,131.5C 205.158,133.005 203.492,133.672 201.5,133.5C 201.714,137.257 200.714,137.924 198.5,135.5C 196.477,137.173 194.144,137.84 191.5,137.5C 191.5,139.5 191.5,141.5 191.5,143.5C 189.876,143.64 188.71,142.973 188,141.5C 186.983,144.028 185.816,144.028 184.5,141.5C 182.167,143.833 179.833,146.167 177.5,148.5C 175.604,149.466 173.604,149.799 171.5,149.5C 171.5,150.833 171.5,152.167 171.5,153.5C 170.167,153.5 168.833,153.5 167.5,153.5C 163.148,149.664 158.481,146.33 153.5,143.5C 155.282,142.28 157.282,141.614 159.5,141.5C 159.343,142.873 159.51,144.207 160,145.5C 163.45,143.556 165.95,140.889 167.5,137.5C 170.167,137.5 172.833,137.5 175.5,137.5C 175.33,136.178 175.663,135.011 176.5,134C 178.344,132.818 180.177,131.651 182,130.5C 182.873,130.735 183.707,131.069 184.5,131.5C 185.234,129.185 186.568,127.352 188.5,126C 189.784,125.316 190.951,125.483 192,126.5C 195.902,123.923 199.736,121.256 203.5,118.5C 207.284,116.553 211.284,115.22 215.5,114.5C 216.167,113.833 216.833,113.167 217.5,112.5C 216.167,111.833 214.833,111.167 213.5,110.5C 217.429,110.366 220.429,108.699 222.5,105.5C 223.167,106.5 223.833,107.5 224.5,108.5C 228.231,107.91 231.898,107.076 235.5,106C 236.833,105 236.833,104 235.5,103C 236.108,102.13 236.941,101.63 238,101.5C 239.3,102.707 240.8,103.374 242.5,103.5C 242.5,102.5 242.5,101.5 242.5,100.5C 243.552,100.351 244.552,100.517 245.5,101C 247.123,104.054 247.79,103.554 247.5,99.5C 250.167,99.5 252.833,99.5 255.5,99.5C 255.5,98.1667 255.5,96.8333 255.5,95.5C 250.498,95.4782 250.165,94.1448 254.5,91.5C 258.346,93.1322 262.346,94.4656 266.5,95.5C 269.998,95.0034 271.665,93.0034 271.5,89.5C 272.978,89.762 274.311,89.4287 275.5,88.5C 271.737,88.1038 268.403,87.1038 265.5,85.5 Z"/></g>
<g><path style="opacity:1" fill="#00b1fe" d="M 175.5,93.5 C 177.687,94.0485 178.354,95.2152 177.5,97C 179.283,98.0665 179.783,99.5665 179,101.5C 178.667,101.167 178.333,100.833 178,100.5C 173.222,103.038 169.055,106.371 165.5,110.5C 161.5,111.167 157.5,111.833 153.5,112.5C 151.209,116.955 148.042,120.622 144,123.5C 143.692,122.692 143.192,122.025 142.5,121.5C 139.537,123.442 137.871,126.108 137.5,129.5C 138.552,129.351 139.552,129.517 140.5,130C 139.107,131.363 137.441,132.196 135.5,132.5C 133.01,131.005 130.343,130.005 127.5,129.5C 127.762,130.978 127.429,132.311 126.5,133.5C 123.694,136.728 120.694,139.728 117.5,142.5C 118.376,143.251 119.376,143.751 120.5,144C 118.91,145.046 117.41,146.213 116,147.5C 115.882,145.427 114.882,144.093 113,143.5C 108.461,145.833 104.961,149.166 102.5,153.5C 94.2541,158.581 86.7541,164.581 80,171.5C 79.51,172.793 79.3433,174.127 79.5,175.5C 78.0222,175.238 76.6888,175.571 75.5,176.5C 72.4641,180.196 68.7974,183.196 64.5,185.5C 62.705,190.013 61.5383,194.68 61,199.5C 60.6174,198.944 60.1174,198.611 59.5,198.5C 59.719,197.325 59.3857,196.325 58.5,195.5C 57.8243,196.602 57.1577,197.602 56.5,198.5C 55.3664,195.63 54.6997,192.63 54.5,189.5C 55.0695,182.241 55.9028,174.908 57,167.5C 58,183.5 59,183.5 60,167.5C 60.3333,168.833 60.6667,170.167 61,171.5C 61.1922,169.423 61.6922,167.423 62.5,165.5C 63.1924,166.025 63.6924,166.692 64,167.5C 67.0645,165.598 69.2312,162.932 70.5,159.5C 71.324,161.748 72.324,161.914 73.5,160C 72.233,158.204 72.233,156.371 73.5,154.5C 76.5017,151.997 79.8351,149.997 83.5,148.5C 85.0049,147.158 85.6715,145.492 85.5,143.5C 90.0604,141.22 94.7271,138.886 99.5,136.5C 103.093,132.803 106.927,129.469 111,126.5C 111.414,126.957 111.914,127.291 112.5,127.5C 116.104,124.921 118.438,121.588 119.5,117.5C 120.978,117.762 122.311,117.429 123.5,116.5C 125.922,113.57 128.755,111.237 132,109.5C 132.333,109.833 132.667,110.167 133,110.5C 135.317,108.684 137.484,106.684 139.5,104.5C 145.428,102.882 149.761,99.382 152.5,94C 156.248,93.6128 159.915,94.1128 163.5,95.5C 167.382,94.2312 171.382,93.5645 175.5,93.5 Z"/></g>
<g><path style="opacity:0.175" fill="#42c9e9" d="M 224.5,91.5 C 223.766,92.7079 223.433,94.0413 223.5,95.5C 221.5,95.5 219.5,95.5 217.5,95.5C 219.336,93.412 221.669,92.0787 224.5,91.5 Z"/></g>
<g><path style="opacity:0.998" fill="#03cafd" d="M 289.5,90.5 C 301.561,94.5325 311.561,101.533 319.5,111.5C 319.5,114.167 319.5,116.833 319.5,119.5C 309.494,119.334 299.494,119.5 289.5,120C 288.318,121.678 287.152,121.512 286,119.5C 284.806,121.024 283.306,122.19 281.5,123C 278.183,123.498 274.85,123.665 271.5,123.5C 271.5,124.833 271.5,126.167 271.5,127.5C 260.835,128.366 250.168,129.366 239.5,130.5C 244.792,131.495 250.125,131.828 255.5,131.5C 255.5,132.833 255.5,134.167 255.5,135.5C 259.329,134.931 262.663,135.598 265.5,137.5C 256.722,137.588 248.055,136.921 239.5,135.5C 235.445,137.706 231.445,140.206 227.5,143C 228.938,143.219 230.271,143.719 231.5,144.5C 229.604,145.466 227.604,145.799 225.5,145.5C 225.852,148.073 225.352,150.406 224,152.5C 223.506,150.866 223.34,149.199 223.5,147.5C 220.421,147.74 217.421,147.407 214.5,146.5C 212.502,148.334 210.168,149.334 207.5,149.5C 207.649,150.552 207.483,151.552 207,152.5C 204.167,154.667 201.333,156.833 198.5,159C 194.848,159.499 191.182,159.665 187.5,159.5C 187.5,161.5 187.5,163.5 187.5,165.5C 185.5,165.5 183.5,165.5 181.5,165.5C 181.5,166.833 181.5,168.167 181.5,169.5C 178.833,167.5 176.167,165.5 173.5,163.5C 171.142,160.454 169.142,157.121 167.5,153.5C 168.833,153.5 170.167,153.5 171.5,153.5C 171.5,152.167 171.5,150.833 171.5,149.5C 173.604,149.799 175.604,149.466 177.5,148.5C 179.833,146.167 182.167,143.833 184.5,141.5C 185.816,144.028 186.983,144.028 188,141.5C 188.71,142.973 189.876,143.64 191.5,143.5C 191.5,141.5 191.5,139.5 191.5,137.5C 194.144,137.84 196.477,137.173 198.5,135.5C 200.714,137.924 201.714,137.257 201.5,133.5C 203.492,133.672 205.158,133.005 206.5,131.5C 207.623,132.544 208.956,133.21 210.5,133.5C 213.998,133.003 215.665,131.003 215.5,127.5C 220.836,126.833 224.836,124.166 227.5,119.5C 228.48,120.981 229.647,122.315 231,123.5C 232.973,120.5 235.806,119 239.5,119C 238.167,118.667 236.833,118.333 235.5,118C 236.646,117.355 237.646,116.522 238.5,115.5C 244.757,118.384 250.423,117.384 255.5,112.5C 259.697,112.014 263.697,111.014 267.5,109.5C 268.524,110.853 269.857,111.52 271.5,111.5C 271.5,110.167 271.5,108.833 271.5,107.5C 275.754,107.92 279.754,107.253 283.5,105.5C 285.029,105.529 286.196,106.196 287,107.5C 287.49,106.207 287.657,104.873 287.5,103.5C 289.5,103.5 291.5,103.5 293.5,103.5C 293.5,104.833 293.5,106.167 293.5,107.5C 302.82,107.933 303.486,106.433 295.5,103C 295.833,102.667 296.167,102.333 296.5,102C 293.881,101.849 291.547,101.015 289.5,99.5C 290.863,98.1072 291.696,96.4405 292,94.5C 293.049,95.5171 294.216,95.6838 295.5,95C 293.182,93.8468 291.182,92.3468 289.5,90.5 Z"/></g>
<g><path style="opacity:0.986" fill="#03b8fe" d="M 175.5,91.5 C 182.245,94.8658 188.245,99.1991 193.5,104.5C 193.5,105.5 193.5,106.5 193.5,107.5C 192.167,107.5 190.833,107.5 189.5,107.5C 189.5,108.833 189.5,110.167 189.5,111.5C 187.11,111.145 184.777,110.478 182.5,109.5C 181.5,109.833 180.5,110.167 179.5,110.5C 180.689,111.429 182.022,111.762 183.5,111.5C 183.5,112.833 183.5,114.167 183.5,115.5C 173.937,116.614 165.603,120.448 158.5,127C 158.957,127.414 159.291,127.914 159.5,128.5C 157.187,129.273 154.854,129.94 152.5,130.5C 151.614,129.675 151.281,128.675 151.5,127.5C 141.723,127.647 141.389,128.647 150.5,130.5C 151.875,132.163 151.542,133.497 149.5,134.5C 144.88,135.493 140.214,135.827 135.5,135.5C 135.5,136.5 135.5,137.5 135.5,138.5C 137.92,138.708 140.253,138.374 142.5,137.5C 143.5,138 144.5,138.5 145.5,139C 141.437,139.282 138.103,140.782 135.5,143.5C 124.404,146.927 116.404,153.927 111.5,164.5C 110.35,165.85 109.683,165.684 109.5,164C 111.18,160.172 110.68,159.339 108,161.5C 107.844,165.134 106.844,168.467 105,171.5C 103.074,168.091 103.241,164.758 105.5,161.5C 105.201,159.185 104.368,159.185 103,161.5C 101.621,166.036 101.121,170.703 101.5,175.5C 100.167,175.5 98.8333,175.5 97.5,175.5C 97.5222,171.407 98.1888,167.407 99.5,163.5C 99.1667,162.167 98.8333,160.833 98.5,159.5C 96.2837,164.929 95.1171,170.595 95,176.5C 88.9372,179.728 84.4372,184.395 81.5,190.5C 83.8073,192.328 83.474,193.994 80.5,195.5C 79.7022,193.922 79.2022,192.256 79,190.5C 77.8553,192.926 76.522,195.259 75,197.5C 72.7597,194.833 71.2597,195.333 70.5,199C 70.8333,199.333 71.1667,199.667 71.5,200C 68.9708,202.029 66.3041,203.862 63.5,205.5C 61.6901,203.377 60.3568,201.043 59.5,198.5C 60.1174,198.611 60.6174,198.944 61,199.5C 61.5383,194.68 62.705,190.013 64.5,185.5C 68.7974,183.196 72.4641,180.196 75.5,176.5C 76.6888,175.571 78.0222,175.238 79.5,175.5C 79.3433,174.127 79.51,172.793 80,171.5C 86.7541,164.581 94.2541,158.581 102.5,153.5C 104.961,149.166 108.461,145.833 113,143.5C 114.882,144.093 115.882,145.427 116,147.5C 117.41,146.213 118.91,145.046 120.5,144C 119.376,143.751 118.376,143.251 117.5,142.5C 120.694,139.728 123.694,136.728 126.5,133.5C 127.429,132.311 127.762,130.978 127.5,129.5C 130.343,130.005 133.01,131.005 135.5,132.5C 137.441,132.196 139.107,131.363 140.5,130C 139.552,129.517 138.552,129.351 137.5,129.5C 137.871,126.108 139.537,123.442 142.5,121.5C 143.192,122.025 143.692,122.692 144,123.5C 148.042,120.622 151.209,116.955 153.5,112.5C 157.5,111.833 161.5,111.167 165.5,110.5C 169.055,106.371 173.222,103.038 178,100.5C 178.333,100.833 178.667,101.167 179,101.5C 179.783,99.5665 179.283,98.0665 177.5,97C 178.354,95.2152 177.687,94.0485 175.5,93.5C 175.5,92.8333 175.5,92.1667 175.5,91.5 Z"/></g>
<g><path style="opacity:0.024" fill="#46c8e6" d="M 211.5,99.5 C 210.735,101.929 209.069,103.262 206.5,103.5C 207.579,101.457 209.246,100.124 211.5,99.5 Z"/></g>
<g><path style="opacity:0.004" fill="#a5eff5" d="M 203.5,105.5 C 202.878,107.456 201.545,108.789 199.5,109.5C 198.287,109.253 197.62,108.586 197.5,107.5C 199.703,107.396 201.703,106.73 203.5,105.5 Z"/></g>
<g><path style="opacity:0.435" fill="#2fafe5" d="M 79.5,107.5 C 79.5,108.833 79.5,110.167 79.5,111.5C 78.5,111.5 77.5,111.5 76.5,111.5C 76.7376,109.596 77.7376,108.262 79.5,107.5 Z"/></g>
<g><path style="opacity:1" fill="#02d1fb" d="M 319.5,111.5 C 326.787,118.134 332.12,126.134 335.5,135.5C 335.5,137.5 335.5,139.5 335.5,141.5C 331.37,141.534 327.37,142.201 323.5,143.5C 323.741,140.103 324.407,136.769 325.5,133.5C 325.167,132.167 324.833,130.833 324.5,129.5C 322.423,130.988 321.423,132.988 321.5,135.5C 319.824,134.817 319.157,133.483 319.5,131.5C 315.407,131.478 311.407,130.811 307.5,129.5C 303.593,130.811 299.593,131.478 295.5,131.5C 295.5,132.833 295.5,134.167 295.5,135.5C 301.313,135.344 301.646,136.011 296.5,137.5C 290.943,136.028 285.61,136.695 280.5,139.5C 280.167,139.167 279.833,138.833 279.5,138.5C 280.5,137.667 281.5,136.833 282.5,136C 282,135.833 281.5,135.667 281,135.5C 277.175,136.794 273.341,136.794 269.5,135.5C 268.133,136.225 266.8,136.892 265.5,137.5C 262.663,135.598 259.329,134.931 255.5,135.5C 255.5,134.167 255.5,132.833 255.5,131.5C 250.125,131.828 244.792,131.495 239.5,130.5C 250.168,129.366 260.835,128.366 271.5,127.5C 271.5,126.167 271.5,124.833 271.5,123.5C 274.85,123.665 278.183,123.498 281.5,123C 283.306,122.19 284.806,121.024 286,119.5C 287.152,121.512 288.318,121.678 289.5,120C 299.494,119.5 309.494,119.334 319.5,119.5C 319.5,116.833 319.5,114.167 319.5,111.5 Z"/></g>
<g><path style="opacity:0.067" fill="#3fa9de" d="M 69.5,119.5 C 69.646,122.554 68.3126,124.554 65.5,125.5C 66.4746,123.205 67.8079,121.205 69.5,119.5 Z"/></g>
<g><path style="opacity:0.027" fill="#47c0f1" d="M 65.5,125.5 C 65.7709,127.38 65.1042,128.713 63.5,129.5C 63.6596,127.847 64.3263,126.514 65.5,125.5 Z"/></g>
<g><path style="opacity:0.999" fill="#06d4f9" d="M 321.5,135.5 C 320.306,136.777 318.64,137.444 316.5,137.5C 312.383,137.201 308.217,136.868 304,136.5C 303.517,137.448 303.351,138.448 303.5,139.5C 314.167,139.833 314.167,140.167 303.5,140.5C 303.5,141.5 303.5,142.5 303.5,143.5C 295.368,143.114 287.368,143.781 279.5,145.5C 279.386,147.718 278.72,149.718 277.5,151.5C 271.334,146.249 264.334,142.916 256.5,141.5C 258.924,141.808 261.257,141.474 263.5,140.5C 260.914,139.52 258.247,139.187 255.5,139.5C 249.94,138.562 244.607,137.229 239.5,135.5C 248.055,136.921 256.722,137.588 265.5,137.5C 266.8,136.892 268.133,136.225 269.5,135.5C 273.341,136.794 277.175,136.794 281,135.5C 281.5,135.667 282,135.833 282.5,136C 281.5,136.833 280.5,137.667 279.5,138.5C 279.833,138.833 280.167,139.167 280.5,139.5C 285.61,136.695 290.943,136.028 296.5,137.5C 301.646,136.011 301.313,135.344 295.5,135.5C 295.5,134.167 295.5,132.833 295.5,131.5C 299.593,131.478 303.593,130.811 307.5,129.5C 311.407,130.811 315.407,131.478 319.5,131.5C 319.157,133.483 319.824,134.817 321.5,135.5 Z"/></g>
<g><path style="opacity:0.6" fill="#2ad4e9" d="M 255.5,139.5 C 258.247,139.187 260.914,139.52 263.5,140.5C 261.257,141.474 258.924,141.808 256.5,141.5C 248.869,141.489 241.869,143.489 235.5,147.5C 236.406,145.583 237.739,143.917 239.5,142.5C 244.734,140.857 250.067,139.857 255.5,139.5 Z"/></g>
<g><path style="opacity:1" fill="#01d8f8" d="M 335.5,135.5 C 337.601,138.797 338.935,142.463 339.5,146.5C 339.441,149.964 340.108,153.297 341.5,156.5C 341.36,158.03 340.693,159.03 339.5,159.5C 339.657,158.127 339.49,156.793 339,155.5C 338.667,156.167 338.333,156.833 338,157.5C 337.365,152.871 334.698,150.871 330,151.5C 327.621,151.654 325.454,152.32 323.5,153.5C 321.833,150.833 320.167,150.833 318.5,153.5C 313.833,150.833 309.167,150.833 304.5,153.5C 301.788,151.74 298.788,151.073 295.5,151.5C 295.5,152.5 295.5,153.5 295.5,154.5C 292.833,154.5 290.167,154.5 287.5,154.5C 287.719,153.325 287.386,152.325 286.5,151.5C 285.571,152.689 285.238,154.022 285.5,155.5C 283.901,155.232 282.568,155.566 281.5,156.5C 280.197,154.858 278.864,153.191 277.5,151.5C 278.72,149.718 279.386,147.718 279.5,145.5C 287.368,143.781 295.368,143.114 303.5,143.5C 303.5,142.5 303.5,141.5 303.5,140.5C 314.167,140.167 314.167,139.833 303.5,139.5C 303.351,138.448 303.517,137.448 304,136.5C 308.217,136.868 312.383,137.201 316.5,137.5C 318.64,137.444 320.306,136.777 321.5,135.5C 321.423,132.988 322.423,130.988 324.5,129.5C 324.833,130.833 325.167,132.167 325.5,133.5C 324.407,136.769 323.741,140.103 323.5,143.5C 327.37,142.201 331.37,141.534 335.5,141.5C 335.5,139.5 335.5,137.5 335.5,135.5 Z"/></g>
<g><path style="opacity:0.999" fill="#06d1fa" d="M 239.5,135.5 C 244.607,137.229 249.94,138.562 255.5,139.5C 250.067,139.857 244.734,140.857 239.5,142.5C 237.739,143.917 236.406,145.583 235.5,147.5C 229.322,152.003 224.655,157.67 221.5,164.5C 220.432,163.566 219.099,163.232 217.5,163.5C 218.038,167.357 217.038,170.691 214.5,173.5C 213.702,173.043 213.369,172.376 213.5,171.5C 211.299,169.29 209.966,166.624 209.5,163.5C 204.656,162.873 200.656,164.373 197.5,168C 198.833,168.333 200.167,168.667 201.5,169C 197.715,170.316 194.048,171.816 190.5,173.5C 188.671,171.844 187.337,169.844 186.5,167.5C 185.507,172.12 185.173,176.786 185.5,181.5C 187.5,181.5 189.5,181.5 191.5,181.5C 190.833,183.5 190.167,185.5 189.5,187.5C 188.5,187.5 187.5,187.5 186.5,187.5C 182.73,185.334 180.397,182 179.5,177.5C 181.369,175.365 182.036,172.698 181.5,169.5C 181.5,168.167 181.5,166.833 181.5,165.5C 183.5,165.5 185.5,165.5 187.5,165.5C 187.5,163.5 187.5,161.5 187.5,159.5C 191.182,159.665 194.848,159.499 198.5,159C 201.333,156.833 204.167,154.667 207,152.5C 207.483,151.552 207.649,150.552 207.5,149.5C 210.168,149.334 212.502,148.334 214.5,146.5C 217.421,147.407 220.421,147.74 223.5,147.5C 223.34,149.199 223.506,150.866 224,152.5C 225.352,150.406 225.852,148.073 225.5,145.5C 227.604,145.799 229.604,145.466 231.5,144.5C 230.271,143.719 228.938,143.219 227.5,143C 231.445,140.206 235.445,137.706 239.5,135.5 Z"/></g>
<g><path style="opacity:0.999" fill="#00ddf6" d="M 339.5,159.5 C 337.692,160.918 337.025,162.918 337.5,165.5C 322.093,164.964 306.76,165.631 291.5,167.5C 289.333,167.13 287.333,166.463 285.5,165.5C 284.441,162.382 283.108,159.382 281.5,156.5C 282.568,155.566 283.901,155.232 285.5,155.5C 285.238,154.022 285.571,152.689 286.5,151.5C 287.386,152.325 287.719,153.325 287.5,154.5C 290.167,154.5 292.833,154.5 295.5,154.5C 295.5,153.5 295.5,152.5 295.5,151.5C 298.788,151.073 301.788,151.74 304.5,153.5C 309.167,150.833 313.833,150.833 318.5,153.5C 320.167,150.833 321.833,150.833 323.5,153.5C 325.454,152.32 327.621,151.654 330,151.5C 334.698,150.871 337.365,152.871 338,157.5C 338.333,156.833 338.667,156.167 339,155.5C 339.49,156.793 339.657,158.127 339.5,159.5 Z"/></g>
<g><path style="opacity:0.993" fill="#01bdfe" d="M 111.5,164.5 C 110.833,166.833 110.167,169.167 109.5,171.5C 107.577,175.029 106.911,179.029 107.5,183.5C 106.624,183.369 105.957,183.702 105.5,184.5C 105.833,185.833 106.167,187.167 106.5,188.5C 106.192,189.308 105.692,189.975 105,190.5C 105.497,186.106 103.664,183.772 99.5,183.5C 99.5,186.167 99.5,188.833 99.5,191.5C 97.6921,192.918 97.0254,194.918 97.5,197.5C 95.9064,197.08 94.4064,196.414 93,195.5C 92.5,195.833 92,196.167 91.5,196.5C 90.0968,200.032 89.0968,203.698 88.5,207.5C 87.7492,206.624 87.2492,205.624 87,204.5C 83.3277,208.643 79.9944,212.976 77,217.5C 74.0646,214.764 72.0646,215.431 71,219.5C 70.4921,217.096 69.3255,216.429 67.5,217.5C 69.0863,219.173 69.7529,221.173 69.5,223.5C 67.8333,223.5 66.1667,223.5 64.5,223.5C 61.0295,215.422 58.3629,207.089 56.5,198.5C 57.1577,197.602 57.8243,196.602 58.5,195.5C 59.3857,196.325 59.719,197.325 59.5,198.5C 60.3568,201.043 61.6901,203.377 63.5,205.5C 66.3041,203.862 68.9708,202.029 71.5,200C 71.1667,199.667 70.8333,199.333 70.5,199C 71.2597,195.333 72.7597,194.833 75,197.5C 76.522,195.259 77.8553,192.926 79,190.5C 79.2022,192.256 79.7022,193.922 80.5,195.5C 83.474,193.994 83.8073,192.328 81.5,190.5C 84.4372,184.395 88.9372,179.728 95,176.5C 95.1171,170.595 96.2837,164.929 98.5,159.5C 98.8333,160.833 99.1667,162.167 99.5,163.5C 98.1888,167.407 97.5222,171.407 97.5,175.5C 98.8333,175.5 100.167,175.5 101.5,175.5C 101.121,170.703 101.621,166.036 103,161.5C 104.368,159.185 105.201,159.185 105.5,161.5C 103.241,164.758 103.074,168.091 105,171.5C 106.844,168.467 107.844,165.134 108,161.5C 110.68,159.339 111.18,160.172 109.5,164C 109.683,165.684 110.35,165.85 111.5,164.5 Z"/></g>
<g><path style="opacity:0.694" fill="#0bd4f0" d="M 173.5,163.5 C 176.167,165.5 178.833,167.5 181.5,169.5C 182.036,172.698 181.369,175.365 179.5,177.5C 177.324,172.992 175.324,168.325 173.5,163.5 Z"/></g>
<g><path style="opacity:0.997" fill="#12e1f2" d="M 339.5,146.5 C 342.545,153.059 344.212,160.059 344.5,167.5C 343.167,175.5 343.167,183.5 344.5,191.5C 344.768,193.099 344.434,194.432 343.5,195.5C 341.541,189.25 340.874,182.584 341.5,175.5C 340.167,175.5 338.833,175.5 337.5,175.5C 337.83,182.2 337.497,188.866 336.5,195.5C 335.526,193.257 335.192,190.924 335.5,188.5C 335.5,184.167 335.5,179.833 335.5,175.5C 330.167,175.5 324.833,175.5 319.5,175.5C 319.5,174.167 319.5,172.833 319.5,171.5C 310.467,171.962 301.467,171.962 292.5,171.5C 291.5,171.833 290.5,172.167 289.5,172.5C 294.167,173.167 298.833,173.833 303.5,174.5C 298.208,175.495 292.875,175.828 287.5,175.5C 287.813,179.042 287.479,182.375 286.5,185.5C 286.713,178.789 286.38,172.123 285.5,165.5C 287.333,166.463 289.333,167.13 291.5,167.5C 306.76,165.631 322.093,164.964 337.5,165.5C 337.025,162.918 337.692,160.918 339.5,159.5C 340.693,159.03 341.36,158.03 341.5,156.5C 340.108,153.297 339.441,149.964 339.5,146.5 Z"/></g>
<g><path style="opacity:0.985" fill="#02e4f1" d="M 335.5,188.5 C 331.828,188.817 330.162,187.151 330.5,183.5C 321.5,183.5 312.5,183.5 303.5,183.5C 303.799,181.396 303.466,179.396 302.5,177.5C 300.836,181.664 298.836,185.664 296.5,189.5C 295.63,187.593 294.63,185.76 293.5,184C 293.905,183.055 294.572,182.388 295.5,182C 294.056,181.219 292.723,181.386 291.5,182.5C 289.853,186.738 288.353,191.071 287,195.5C 286.517,194.552 286.351,193.552 286.5,192.5C 286.5,190.167 286.5,187.833 286.5,185.5C 287.479,182.375 287.813,179.042 287.5,175.5C 292.875,175.828 298.208,175.495 303.5,174.5C 298.833,173.833 294.167,173.167 289.5,172.5C 290.5,172.167 291.5,171.833 292.5,171.5C 301.467,171.962 310.467,171.962 319.5,171.5C 319.5,172.833 319.5,174.167 319.5,175.5C 324.833,175.5 330.167,175.5 335.5,175.5C 335.5,179.833 335.5,184.167 335.5,188.5 Z"/></g>
<g><path style="opacity:0.999" fill="#03d6f8" d="M 213.5,171.5 C 212.414,171.62 211.747,172.287 211.5,173.5C 212.362,175.087 213.029,176.754 213.5,178.5C 212.522,180.777 211.855,183.11 211.5,185.5C 210.5,185.5 209.5,185.5 208.5,185.5C 208.456,182.866 208.456,180.2 208.5,177.5C 206.156,181.721 202.489,183.721 197.5,183.5C 197.66,185.199 197.494,186.866 197,188.5C 196.346,187.304 195.846,187.304 195.5,188.5C 198.229,190.367 197.896,191.367 194.5,191.5C 190.981,191.741 188.315,190.407 186.5,187.5C 187.5,187.5 188.5,187.5 189.5,187.5C 190.167,185.5 190.833,183.5 191.5,181.5C 189.5,181.5 187.5,181.5 185.5,181.5C 185.173,176.786 185.507,172.12 186.5,167.5C 187.337,169.844 188.671,171.844 190.5,173.5C 194.048,171.816 197.715,170.316 201.5,169C 200.167,168.667 198.833,168.333 197.5,168C 200.656,164.373 204.656,162.873 209.5,163.5C 209.966,166.624 211.299,169.29 213.5,171.5 Z"/></g>
<g><path style="opacity:0.031" fill="#1cdaeb" d="M 221.5,164.5 C 219.934,171.831 217.434,178.831 214,185.5C 212.223,187.79 210.056,189.457 207.5,190.5C 207.216,188.585 207.549,186.919 208.5,185.5C 209.5,185.5 210.5,185.5 211.5,185.5C 211.855,183.11 212.522,180.777 213.5,178.5C 213.029,176.754 212.362,175.087 211.5,173.5C 211.747,172.287 212.414,171.62 213.5,171.5C 213.369,172.376 213.702,173.043 214.5,173.5C 217.038,170.691 218.038,167.357 217.5,163.5C 219.099,163.232 220.432,163.566 221.5,164.5 Z"/></g>
<g><path style="opacity:0.999" fill="#02eaf0" d="M 343.5,195.5 C 343.167,201.516 341.834,207.183 339.5,212.5C 338.032,211.221 337.365,209.554 337.5,207.5C 333.5,207.5 329.5,207.5 325.5,207.5C 325.141,205.234 325.808,203.401 327.5,202C 325.833,201.667 324.167,201.333 322.5,201C 322.833,200.667 323.167,200.333 323.5,200C 319.656,198.518 315.656,197.685 311.5,197.5C 303.459,198.837 295.459,200.17 287.5,201.5C 287.843,199.517 287.176,198.183 285.5,197.5C 285.216,195.585 285.549,193.919 286.5,192.5C 286.351,193.552 286.517,194.552 287,195.5C 288.353,191.071 289.853,186.738 291.5,182.5C 292.723,181.386 294.056,181.219 295.5,182C 294.572,182.388 293.905,183.055 293.5,184C 294.63,185.76 295.63,187.593 296.5,189.5C 298.836,185.664 300.836,181.664 302.5,177.5C 303.466,179.396 303.799,181.396 303.5,183.5C 312.5,183.5 321.5,183.5 330.5,183.5C 330.162,187.151 331.828,188.817 335.5,188.5C 335.192,190.924 335.526,193.257 336.5,195.5C 337.497,188.866 337.83,182.2 337.5,175.5C 338.833,175.5 340.167,175.5 341.5,175.5C 340.874,182.584 341.541,189.25 343.5,195.5 Z"/></g>
<g><path style="opacity:1" fill="#22dcf3" d="M 208.5,185.5 C 207.549,186.919 207.216,188.585 207.5,190.5C 203.208,192.631 198.875,192.965 194.5,191.5C 197.896,191.367 198.229,190.367 195.5,188.5C 195.846,187.304 196.346,187.304 197,188.5C 197.494,186.866 197.66,185.199 197.5,183.5C 202.489,183.721 206.156,181.721 208.5,177.5C 208.456,180.2 208.456,182.866 208.5,185.5 Z"/></g>
<g><path style="opacity:0.936" fill="#00c4fe" d="M 107.5,183.5 C 107.181,188.363 107.514,193.03 108.5,197.5C 109.434,198.568 109.768,199.901 109.5,201.5C 108.892,202.8 108.225,204.133 107.5,205.5C 109.107,207.642 108.773,209.309 106.5,210.5C 105.833,207.5 105.167,204.5 104.5,201.5C 103.115,202.551 102.115,203.884 101.5,205.5C 102.754,207.334 103.421,209.334 103.5,211.5C 102.167,211.5 100.833,211.5 99.5,211.5C 99.5,204.833 99.5,198.167 99.5,191.5C 99.5,188.833 99.5,186.167 99.5,183.5C 103.664,183.772 105.497,186.106 105,190.5C 105.692,189.975 106.192,189.308 106.5,188.5C 106.167,187.167 105.833,185.833 105.5,184.5C 105.957,183.702 106.624,183.369 107.5,183.5 Z"/></g>
<g><path style="opacity:0.087" fill="#19dfdf" d="M 344.5,167.5 C 345.511,175.522 345.511,183.522 344.5,191.5C 343.167,183.5 343.167,175.5 344.5,167.5 Z"/></g>
<g><path style="opacity:0.004" fill="#39c1de" d="M 109.5,171.5 C 108.53,180.082 108.197,188.749 108.5,197.5C 107.514,193.03 107.181,188.363 107.5,183.5C 106.911,179.029 107.577,175.029 109.5,171.5 Z"/></g>
<g><path style="opacity:0.987" fill="#02cafc" d="M 99.5,191.5 C 99.5,198.167 99.5,204.833 99.5,211.5C 100.833,211.5 102.167,211.5 103.5,211.5C 103.421,209.334 102.754,207.334 101.5,205.5C 102.115,203.884 103.115,202.551 104.5,201.5C 105.167,204.5 105.833,207.5 106.5,210.5C 108.773,209.309 109.107,207.642 107.5,205.5C 108.225,204.133 108.892,202.8 109.5,201.5C 110.965,206.354 112.299,211.354 113.5,216.5C 112.551,218.737 111.884,221.071 111.5,223.5C 110.167,223.5 108.833,223.5 107.5,223.5C 107.649,224.552 107.483,225.552 107,226.5C 103.523,229.481 101.023,233.148 99.5,237.5C 102.36,239.842 101.86,241.176 98,241.5C 96.6349,241.156 95.4682,240.489 94.5,239.5C 94.1667,240.167 93.8333,240.833 93.5,241.5C 95.5087,245.03 95.842,248.697 94.5,252.5C 90.8743,242.876 89.2077,243.21 89.5,253.5C 87.0194,253.677 85.1861,252.677 84,250.5C 83.3292,251.252 82.4959,251.586 81.5,251.5C 78.4744,247.795 75.8077,243.795 73.5,239.5C 74.0431,239.44 74.3764,239.107 74.5,238.5C 73.5031,235.838 72.5031,233.172 71.5,230.5C 71.8333,229.5 72.1667,228.5 72.5,227.5C 73.3372,229.844 74.6706,231.844 76.5,233.5C 79.0278,232.502 79.0278,231.669 76.5,231C 77.0712,229.795 77.7379,228.628 78.5,227.5C 79.1667,228.167 79.8333,228.833 80.5,229.5C 82.758,226.218 85.758,224.218 89.5,223.5C 89.5,221.5 89.5,219.5 89.5,217.5C 92.8912,217.703 95.8912,216.703 98.5,214.5C 96.5625,212.851 95.5625,210.685 95.5,208C 96.4899,204.539 97.1566,201.039 97.5,197.5C 97.0254,194.918 97.6921,192.918 99.5,191.5 Z"/></g>
<g><path style="opacity:1" fill="#02c4fe" d="M 97.5,197.5 C 97.1566,201.039 96.4899,204.539 95.5,208C 95.5625,210.685 96.5625,212.851 98.5,214.5C 95.8912,216.703 92.8912,217.703 89.5,217.5C 89.5,219.5 89.5,221.5 89.5,223.5C 85.758,224.218 82.758,226.218 80.5,229.5C 79.8333,228.833 79.1667,228.167 78.5,227.5C 77.7379,228.628 77.0712,229.795 76.5,231C 79.0278,231.669 79.0278,232.502 76.5,233.5C 74.6706,231.844 73.3372,229.844 72.5,227.5C 72.1667,228.5 71.8333,229.5 71.5,230.5C 72.5031,233.172 73.5031,235.838 74.5,238.5C 74.3764,239.107 74.0431,239.44 73.5,239.5C 70.0089,234.526 67.0089,229.192 64.5,223.5C 66.1667,223.5 67.8333,223.5 69.5,223.5C 69.7529,221.173 69.0863,219.173 67.5,217.5C 69.3255,216.429 70.4921,217.096 71,219.5C 72.0646,215.431 74.0646,214.764 77,217.5C 79.9944,212.976 83.3277,208.643 87,204.5C 87.2492,205.624 87.7492,206.624 88.5,207.5C 89.0968,203.698 90.0968,200.032 91.5,196.5C 92,196.167 92.5,195.833 93,195.5C 94.4064,196.414 95.9064,197.08 97.5,197.5 Z"/></g>
<g><path style="opacity:1" fill="#04f0ee" d="M 285.5,197.5 C 287.176,198.183 287.843,199.517 287.5,201.5C 295.459,200.17 303.459,198.837 311.5,197.5C 315.656,197.685 319.656,198.518 323.5,200C 323.167,200.333 322.833,200.667 322.5,201C 324.167,201.333 325.833,201.667 327.5,202C 325.808,203.401 325.141,205.234 325.5,207.5C 329.5,207.5 333.5,207.5 337.5,207.5C 337.365,209.554 338.032,211.221 339.5,212.5C 338.102,218.786 336.102,224.786 333.5,230.5C 333.812,227.112 332.479,224.612 329.5,223C 329.833,222.667 330.167,222.333 330.5,222C 323.821,221.453 317.155,220.787 310.5,220C 308.359,218.692 306.359,217.192 304.5,215.5C 299.891,217.847 295.058,218.514 290,217.5C 288.635,217.844 287.468,218.511 286.5,219.5C 285.833,217.5 285.167,215.5 284.5,213.5C 283.059,216.725 283.393,219.725 285.5,222.5C 284.354,223.719 283.354,225.052 282.5,226.5C 281.55,222.917 279.883,219.917 277.5,217.5C 280.377,210.86 283.043,204.193 285.5,197.5 Z"/></g>
<g><path style="opacity:1" fill="#03f6eb" d="M 333.5,230.5 C 330.563,239.704 326.563,248.371 321.5,256.5C 321.823,252.774 321.489,249.107 320.5,245.5C 319.833,246.167 319.167,246.833 318.5,247.5C 316.909,245.367 314.909,243.701 312.5,242.5C 311.702,240.922 311.202,239.256 311,237.5C 309.951,238.517 308.784,238.684 307.5,238C 306.696,236.229 305.529,234.729 304,233.5C 298.73,233.908 293.23,234.241 287.5,234.5C 287.785,232.712 287.452,231.045 286.5,229.5C 282.734,234.549 277.734,237.215 271.5,237.5C 271.5,236.167 271.5,234.833 271.5,233.5C 274.167,233.5 276.833,233.5 279.5,233.5C 279.665,230.482 279.498,227.482 279,224.5C 277.989,225.337 276.822,225.67 275.5,225.5C 276.64,222.975 277.307,220.308 277.5,217.5C 279.883,219.917 281.55,222.917 282.5,226.5C 283.354,225.052 284.354,223.719 285.5,222.5C 283.393,219.725 283.059,216.725 284.5,213.5C 285.167,215.5 285.833,217.5 286.5,219.5C 287.468,218.511 288.635,217.844 290,217.5C 295.058,218.514 299.891,217.847 304.5,215.5C 306.359,217.192 308.359,218.692 310.5,220C 317.155,220.787 323.821,221.453 330.5,222C 330.167,222.333 329.833,222.667 329.5,223C 332.479,224.612 333.812,227.112 333.5,230.5 Z"/></g>
<g><path style="opacity:1" fill="#06d1fa" d="M 113.5,216.5 C 116.012,220.866 118.012,225.533 119.5,230.5C 119.5,232.833 119.5,235.167 119.5,237.5C 117.508,237.328 115.842,237.995 114.5,239.5C 113.833,242.833 113.167,246.167 112.5,249.5C 111.065,247.599 109.398,247.266 107.5,248.5C 106.559,250.772 105.226,252.772 103.5,254.5C 105.99,256.083 108.657,257.083 111.5,257.5C 111.5,258.833 111.5,260.167 111.5,261.5C 107.532,260.189 103.532,258.855 99.5,257.5C 96.4992,257.406 94.4992,258.739 93.5,261.5C 94.7545,263.334 95.4211,265.334 95.5,267.5C 90.4897,262.488 85.823,257.155 81.5,251.5C 82.4959,251.586 83.3292,251.252 84,250.5C 85.1861,252.677 87.0194,253.677 89.5,253.5C 89.2077,243.21 90.8743,242.876 94.5,252.5C 95.842,248.697 95.5087,245.03 93.5,241.5C 93.8333,240.833 94.1667,240.167 94.5,239.5C 95.4682,240.489 96.6349,241.156 98,241.5C 101.86,241.176 102.36,239.842 99.5,237.5C 101.023,233.148 103.523,229.481 107,226.5C 107.483,225.552 107.649,224.552 107.5,223.5C 108.833,223.5 110.167,223.5 111.5,223.5C 111.884,221.071 112.551,218.737 113.5,216.5 Z"/></g>
<g><path style="opacity:0.378" fill="#41e6e2" d="M 277.5,217.5 C 277.307,220.308 276.64,222.975 275.5,225.5C 273.919,227.303 271.919,228.636 269.5,229.5C 272.18,225.463 274.846,221.463 277.5,217.5 Z"/></g>
<g><path style="opacity:1" fill="#06fce8" d="M 321.5,256.5 C 320,260.173 318,263.506 315.5,266.5C 315.344,262.865 314.178,262.532 312,265.5C 311.502,262.183 311.335,258.85 311.5,255.5C 308.108,255.129 305.442,253.463 303.5,250.5C 295.5,249.667 287.5,248.833 279.5,248C 282.226,247.818 284.893,247.318 287.5,246.5C 282.208,245.505 276.875,245.172 271.5,245.5C 271.714,249.257 270.714,249.924 268.5,247.5C 267.319,248.515 266.319,249.681 265.5,251C 266.707,252.3 267.374,253.8 267.5,255.5C 262.025,254.588 258.025,253.255 255.5,251.5C 256.339,257.149 254.339,261.482 249.5,264.5C 246.339,265.913 243.339,267.58 240.5,269.5C 239.914,269.291 239.414,268.957 239,268.5C 235.612,270.851 235.112,273.518 237.5,276.5C 235.833,278.167 234.167,279.833 232.5,281.5C 231.833,278.023 231.166,274.689 230.5,271.5C 230.992,269.181 231.992,267.181 233.5,265.5C 234.735,265.279 235.735,264.612 236.5,263.5C 237.167,264.167 237.833,264.833 238.5,265.5C 239.232,261.597 240.899,258.263 243.5,255.5C 249.104,251.235 254.437,246.568 259.5,241.5C 260.75,241.577 261.583,242.244 262,243.5C 263.626,243.146 265.459,243.146 267.5,243.5C 267.396,238.694 268.063,234.028 269.5,229.5C 271.919,228.636 273.919,227.303 275.5,225.5C 276.822,225.67 277.989,225.337 279,224.5C 279.498,227.482 279.665,230.482 279.5,233.5C 276.833,233.5 274.167,233.5 271.5,233.5C 271.5,234.833 271.5,236.167 271.5,237.5C 277.734,237.215 282.734,234.549 286.5,229.5C 287.452,231.045 287.785,232.712 287.5,234.5C 293.23,234.241 298.73,233.908 304,233.5C 305.529,234.729 306.696,236.229 307.5,238C 308.784,238.684 309.951,238.517 311,237.5C 311.202,239.256 311.702,240.922 312.5,242.5C 314.909,243.701 316.909,245.367 318.5,247.5C 319.167,246.833 319.833,246.167 320.5,245.5C 321.489,249.107 321.823,252.774 321.5,256.5 Z"/></g>
<g><path style="opacity:0.792" fill="#27f3e9" d="M 269.5,229.5 C 268.063,234.028 267.396,238.694 267.5,243.5C 265.459,243.146 263.626,243.146 262,243.5C 261.583,242.244 260.75,241.577 259.5,241.5C 262.486,237.183 265.82,233.183 269.5,229.5 Z"/></g>
<g><path style="opacity:0.997" fill="#05fee3" d="M 315.5,266.5 C 306.026,283.068 294.359,298.068 280.5,311.5C 277.634,313.432 274.634,315.099 271.5,316.5C 271.657,315.127 271.49,313.793 271,312.5C 269.329,314.276 267.496,314.61 265.5,313.5C 264.614,314.325 264.281,315.325 264.5,316.5C 259.473,316.497 254.473,316.164 249.5,315.5C 248.833,313.5 248.167,311.5 247.5,309.5C 250.144,309.84 252.477,309.173 254.5,307.5C 255.429,308.689 255.762,310.022 255.5,311.5C 258.898,311.858 262.065,311.192 265,309.5C 265.945,309.905 266.612,310.572 267,311.5C 269.369,308.243 271.202,308.243 272.5,311.5C 274.577,310.012 275.577,308.012 275.5,305.5C 272.552,305.777 269.719,305.444 267,304.5C 266.243,298.851 265.743,293.184 265.5,287.5C 263.833,287.5 262.167,287.5 260.5,287.5C 260.5,290.167 260.5,292.833 260.5,295.5C 255.167,295.5 249.833,295.5 244.5,295.5C 244.5,298.167 244.5,300.833 244.5,303.5C 245.675,303.281 246.675,303.614 247.5,304.5C 244.553,305.321 241.553,305.821 238.5,306C 239.696,306.654 239.696,307.154 238.5,307.5C 236.833,306.5 235.5,305.167 234.5,303.5C 233.893,303.624 233.56,303.957 233.5,304.5C 230.62,300.725 228.786,296.392 228,291.5C 226.88,284.528 227.713,277.862 230.5,271.5C 231.166,274.689 231.833,278.023 232.5,281.5C 234.167,279.833 235.833,278.167 237.5,276.5C 235.112,273.518 235.612,270.851 239,268.5C 239.414,268.957 239.914,269.291 240.5,269.5C 243.339,267.58 246.339,265.913 249.5,264.5C 254.339,261.482 256.339,257.149 255.5,251.5C 258.025,253.255 262.025,254.588 267.5,255.5C 267.374,253.8 266.707,252.3 265.5,251C 266.319,249.681 267.319,248.515 268.5,247.5C 270.714,249.924 271.714,249.257 271.5,245.5C 276.875,245.172 282.208,245.505 287.5,246.5C 284.893,247.318 282.226,247.818 279.5,248C 287.5,248.833 295.5,249.667 303.5,250.5C 305.442,253.463 308.108,255.129 311.5,255.5C 311.335,258.85 311.502,262.183 312,265.5C 314.178,262.532 315.344,262.865 315.5,266.5 Z"/></g>
<g><path style="opacity:1" fill="#03d3fb" d="M 123.5,243.5 C 124.167,244.833 124.833,246.167 125.5,247.5C 125.5,248.833 125.5,250.167 125.5,251.5C 123.508,251.672 121.842,251.005 120.5,249.5C 118.483,246.45 117.483,243.117 117.5,239.5C 118.833,239.5 120.167,239.5 121.5,239.5C 121.157,241.483 121.824,242.817 123.5,243.5 Z"/></g>
<g><path style="opacity:0.057" fill="#2cdde6" d="M 124.5,239.5 C 128.167,244.833 131.833,250.167 135.5,255.5C 133.282,255.386 131.282,254.72 129.5,253.5C 128.636,251.081 127.303,249.081 125.5,247.5C 124.833,246.167 124.167,244.833 123.5,243.5C 123.232,241.901 123.566,240.568 124.5,239.5 Z"/></g>
<g><path style="opacity:1" fill="#06def5" d="M 129.5,253.5 C 131.282,254.72 133.282,255.386 135.5,255.5C 136.338,255.842 136.672,256.508 136.5,257.5C 134.521,260.099 132.521,262.765 130.5,265.5C 129.534,267.396 129.201,269.396 129.5,271.5C 130.833,271.5 132.167,271.5 133.5,271.5C 133.757,268.068 134.424,264.734 135.5,261.5C 136.833,261.5 138.167,261.5 139.5,261.5C 139.5,263.5 139.5,265.5 139.5,267.5C 138.167,267.5 136.833,267.5 135.5,267.5C 135.5,270.167 135.5,272.833 135.5,275.5C 136.833,275.5 138.167,275.5 139.5,275.5C 139.5,279.5 137.5,281.5 133.5,281.5C 133.5,279.5 133.5,277.5 133.5,275.5C 132.167,275.5 130.833,275.5 129.5,275.5C 129.5,277.5 129.5,279.5 129.5,281.5C 125.741,280.958 123.074,282.292 121.5,285.5C 115.486,283.165 110.152,279.831 105.5,275.5C 106.183,273.824 107.517,273.157 109.5,273.5C 110.167,278.833 110.833,278.833 111.5,273.5C 116.833,272.833 116.833,272.167 111.5,271.5C 111.351,270.448 111.517,269.448 112,268.5C 114.124,267.378 115.957,265.878 117.5,264C 117.043,263.586 116.709,263.086 116.5,262.5C 117.453,260.545 118.787,258.878 120.5,257.5C 121.429,256.311 121.762,254.978 121.5,253.5C 123.5,253.5 125.5,253.5 127.5,253.5C 128.167,261.5 128.833,261.5 129.5,253.5 Z"/></g>
<g><path style="opacity:0.455" fill="#51f1e3" d="M 243.5,255.5 C 240.899,258.263 239.232,261.597 238.5,265.5C 237.833,264.833 237.167,264.167 236.5,263.5C 235.735,264.612 234.735,265.279 233.5,265.5C 235.833,261.167 239.167,257.833 243.5,255.5 Z"/></g>
<g><path style="opacity:1" fill="#05d7f7" d="M 119.5,230.5 C 121.405,233.304 123.071,236.304 124.5,239.5C 123.566,240.568 123.232,241.901 123.5,243.5C 121.824,242.817 121.157,241.483 121.5,239.5C 120.167,239.5 118.833,239.5 117.5,239.5C 117.483,243.117 118.483,246.45 120.5,249.5C 121.842,251.005 123.508,251.672 125.5,251.5C 125.5,250.167 125.5,248.833 125.5,247.5C 127.303,249.081 128.636,251.081 129.5,253.5C 128.833,261.5 128.167,261.5 127.5,253.5C 125.5,253.5 123.5,253.5 121.5,253.5C 121.762,254.978 121.429,256.311 120.5,257.5C 118.787,258.878 117.453,260.545 116.5,262.5C 116.709,263.086 117.043,263.586 117.5,264C 115.957,265.878 114.124,267.378 112,268.5C 111.517,269.448 111.351,270.448 111.5,271.5C 116.833,272.167 116.833,272.833 111.5,273.5C 110.833,278.833 110.167,278.833 109.5,273.5C 107.517,273.157 106.183,273.824 105.5,275.5C 101.762,273.303 98.429,270.636 95.5,267.5C 95.4211,265.334 94.7545,263.334 93.5,261.5C 94.4992,258.739 96.4992,257.406 99.5,257.5C 103.532,258.855 107.532,260.189 111.5,261.5C 111.5,260.167 111.5,258.833 111.5,257.5C 108.657,257.083 105.99,256.083 103.5,254.5C 105.226,252.772 106.559,250.772 107.5,248.5C 109.398,247.266 111.065,247.599 112.5,249.5C 113.167,246.167 113.833,242.833 114.5,239.5C 115.842,237.995 117.508,237.328 119.5,237.5C 119.5,235.167 119.5,232.833 119.5,230.5 Z"/></g>
<g><path style="opacity:1" fill="#06e5ed" d="M 136.5,257.5 C 138.262,258.262 139.262,259.596 139.5,261.5C 138.167,261.5 136.833,261.5 135.5,261.5C 134.424,264.734 133.757,268.068 133.5,271.5C 132.167,271.5 130.833,271.5 129.5,271.5C 129.201,269.396 129.534,267.396 130.5,265.5C 132.521,262.765 134.521,260.099 136.5,257.5 Z"/></g>
<g><path style="opacity:0.106" fill="#1ce4e6" d="M 139.5,261.5 C 141.977,263.86 142.977,266.86 142.5,270.5C 141.226,283.797 134.226,288.797 121.5,285.5C 123.074,282.292 125.741,280.958 129.5,281.5C 129.5,279.5 129.5,277.5 129.5,275.5C 130.833,275.5 132.167,275.5 133.5,275.5C 133.5,277.5 133.5,279.5 133.5,281.5C 137.5,281.5 139.5,279.5 139.5,275.5C 138.167,275.5 136.833,275.5 135.5,275.5C 135.5,272.833 135.5,270.167 135.5,267.5C 136.833,267.5 138.167,267.5 139.5,267.5C 139.5,265.5 139.5,263.5 139.5,261.5 Z"/></g>
<g><path style="opacity:0.993" fill="#15fede" d="M 271.5,316.5 C 259.613,320.345 248.613,318.678 238.5,311.5C 236.395,309.408 234.728,307.075 233.5,304.5C 233.56,303.957 233.893,303.624 234.5,303.5C 235.5,305.167 236.833,306.5 238.5,307.5C 239.696,307.154 239.696,306.654 238.5,306C 241.553,305.821 244.553,305.321 247.5,304.5C 246.675,303.614 245.675,303.281 244.5,303.5C 244.5,300.833 244.5,298.167 244.5,295.5C 249.833,295.5 255.167,295.5 260.5,295.5C 260.5,292.833 260.5,290.167 260.5,287.5C 262.167,287.5 263.833,287.5 265.5,287.5C 265.743,293.184 266.243,298.851 267,304.5C 269.719,305.444 272.552,305.777 275.5,305.5C 275.577,308.012 274.577,310.012 272.5,311.5C 271.202,308.243 269.369,308.243 267,311.5C 266.612,310.572 265.945,309.905 265,309.5C 262.065,311.192 258.898,311.858 255.5,311.5C 255.762,310.022 255.429,308.689 254.5,307.5C 252.477,309.173 250.144,309.84 247.5,309.5C 248.167,311.5 248.833,313.5 249.5,315.5C 254.473,316.164 259.473,316.497 264.5,316.5C 264.281,315.325 264.614,314.325 265.5,313.5C 267.496,314.61 269.329,314.276 271,312.5C 271.49,313.793 271.657,315.127 271.5,316.5 Z"/></g>
</svg>
