<?xml version="1.0" encoding="UTF-8"?>
<!DOCTYPE svg PUBLIC "-//W3C//DTD SVG 1.1//EN" "http://www.w3.org/Graphics/SVG/1.1/DTD/svg11.dtd">
<svg xmlns="http://www.w3.org/2000/svg" version="1.1" width="542px" height="460px" style="shape-rendering:geometricPrecision; text-rendering:geometricPrecision; image-rendering:optimizeQuality; fill-rule:evenodd; clip-rule:evenodd" xmlns:xlink="http://www.w3.org/1999/xlink">
<g><path style="opacity:0.978" fill="#838488" d="M 194.5,130.5 C 202.997,136.586 211.997,141.919 221.5,146.5C 213.666,151.202 209.166,158.202 208,167.5C 207.667,196.167 207.333,224.833 207,253.5C 206.582,262.768 203.082,270.602 196.5,277C 188.86,280.282 181.193,280.282 173.5,277C 159.554,270.549 148.221,261.049 139.5,248.5C 128.753,249.38 118.753,246.88 109.5,241C 86.2627,225.378 73.096,203.544 70,175.5C 69.3333,146.167 69.3333,116.833 70,87.5C 71.6007,78.5845 76.2674,71.9178 84,67.5C 93.0921,72.2935 101.925,77.4602 110.5,83C 108.05,86.4529 105.217,89.6195 102,92.5C 100.149,96.0036 98.8158,99.6702 98,103.5C 97.3333,131.833 97.3333,160.167 98,188.5C 99.2984,198.118 104.132,205.285 112.5,210C 118.247,213.063 122.08,211.563 124,205.5C 124.333,176.167 124.667,146.833 125,117.5C 126.687,109.323 131.187,103.323 138.5,99.5C 148.144,103.652 157.144,108.818 165.5,115C 158.395,120.443 154.228,127.609 153,136.5C 152.333,164.167 152.333,191.833 153,219.5C 154.586,231.752 161.253,239.752 173,243.5C 176.619,242.617 178.619,240.283 179,236.5C 179.333,207.167 179.667,177.833 180,148.5C 181.768,139.933 186.601,133.933 194.5,130.5 Z"/></g>
<g><path style="opacity:0.998" fill="#fd6729" d="M 330.5,209.5 C 321.359,204.429 312.359,199.095 303.5,193.5C 321.806,183.012 340.139,172.512 358.5,162C 364.534,157.563 364.868,152.896 359.5,148C 351.947,143.445 343.947,142.445 335.5,145C 315.456,155.773 295.622,166.939 276,178.5C 267.086,173.627 258.252,168.627 249.5,163.5C 248.289,162.726 248.289,161.893 249.5,161C 268.33,150.419 286.997,139.586 305.5,128.5C 309.952,122.932 308.952,118.432 302.5,115C 294.663,110.785 286.663,110.452 278.5,114C 259.473,124.845 240.473,135.679 221.5,146.5C 211.997,141.919 202.997,136.586 194.5,130.5C 213.108,118.855 232.108,107.689 251.5,97C 283.261,83.3981 313.261,86.3981 341.5,106C 345.393,109.39 348.727,113.223 351.5,117.5C 369.186,121.511 385.186,129.011 399.5,140C 413.056,153.96 411.056,165.293 393.5,174C 372.769,186.364 351.769,198.197 330.5,209.5 Z"/></g>
<g><path style="opacity:0.965" fill="#c8c9cc" d="M 303.5,193.5 C 312.359,199.095 321.359,204.429 330.5,209.5C 324.632,214.208 320.465,220.208 318,227.5C 317.667,257.167 317.333,286.833 317,316.5C 312.509,343.348 298.342,349.848 274.5,336C 249.075,319.313 236.075,295.813 235.5,265.5C 244.582,270.456 253.416,275.79 262,281.5C 263.228,294.333 269.894,302.667 282,306.5C 283.812,306.507 285.312,305.84 286.5,304.5C 288.141,301.442 288.974,298.108 289,294.5C 289.333,266.5 289.667,238.5 290,210.5C 292.126,202.899 296.626,197.232 303.5,193.5 Z"/></g>
<g><path style="opacity:0.932" fill="#c9c9cc" d="M 234.5,202.5 C 243.684,206.844 252.517,211.844 261,217.5C 262.121,223.061 262.621,228.727 262.5,234.5C 262.167,239.5 261.833,244.5 261.5,249.5C 252.748,244.373 243.914,239.373 235,234.5C 234.5,223.839 234.333,213.172 234.5,202.5 Z"/></g>
<g><path style="opacity:0.972" fill="#c8c9cc" d="M 359.5,235.5 C 366.01,235.07 372.344,235.903 378.5,238C 399.073,248.868 419.24,260.368 439,272.5C 439.985,274.366 440.485,276.366 440.5,278.5C 439.557,287.323 439.223,295.99 439.5,304.5C 420.825,293.161 401.825,282.327 382.5,272C 374.636,270.529 371.303,273.863 372.5,282C 372.603,289.977 375.603,296.644 381.5,302C 392.337,308.586 403.337,314.919 414.5,321C 434.246,339.893 442.746,363.059 440,390.5C 436.665,411.924 424.832,418.424 404.5,410C 384.424,399.213 364.59,388.047 345,376.5C 343.597,365.898 343.097,355.231 343.5,344.5C 362.724,354.449 381.724,364.949 400.5,376C 405.649,378.843 409.483,377.676 412,372.5C 413.65,361.632 410.15,352.799 401.5,346C 377.333,335.167 359.833,317.667 349,293.5C 344.356,280.115 343.022,266.448 345,252.5C 347.074,244.279 351.907,238.612 359.5,235.5 Z"/></g>
</svg>
